<svg xmlns="http://www.w3.org/2000/svg" viewBox="0 0 42 42"><defs><style>.cls-1{fill:#a48903;}</style></defs><title>aviation-icon</title><g id="Layer_2" data-name="Layer 2"><g id="Layer_1-2" data-name="Layer 1"><path class="cls-1" d="M41.24.76q1.32,1.56.36,4.44a13.06,13.06,0,0,1-3.24,5.15l-4.82,4.83L38.33,36A.91.91,0,0,1,38,37L34.13,39.9a.84.84,0,0,1-.56.18.66.66,0,0,1-.21,0,.83.83,0,0,1-.63-.48L24.37,24.35,16.6,32.11l1.59,5.81a.91.91,0,0,1-.24.93l-2.87,2.88a.93.93,0,0,1-.69.27h-.06a1.08,1.08,0,0,1-.72-.39L7.94,34.06.39,28.39A.9.9,0,0,1,0,27.7,1,1,0,0,1,.27,27l2.88-2.9a.93.93,0,0,1,.69-.27.62.62,0,0,1,.24,0L9.89,25.4l7.76-7.77L2.43,9.27a1,1,0,0,1-.51-.72.92.92,0,0,1,.27-.8L6,3.91a.86.86,0,0,1,.89-.24L26.85,8.43l4.8-4.79A13.06,13.06,0,0,1,36.8.4Q39.68-.56,41.24.76Z"/></g></g></svg>