<svg xmlns="http://www.w3.org/2000/svg" viewBox="0 0 173.89 173.89"><defs><style>.cls-1{fill:#a48903;}.cls-2{fill:#fff;fill-rule:evenodd;}</style></defs><title>contact-call</title><g id="Layer_2" data-name="Layer 2"><g id="Layer_1-2" data-name="Layer 1"><path class="cls-1" d="M148.43,25.47A87,87,0,1,0,173.89,87,86.69,86.69,0,0,0,148.43,25.47Z"/><path class="cls-2" d="M120.28,104c-2.46-1.92-5.15-3.65-7.65-5.44-5.15-3.46-9.87-3.75-13.67,1.88-2.17,3.18-5.2,3.32-8.33,1.93-8.71-3.81-15.4-9.73-19.35-18.44a11.19,11.19,0,0,1-1-3.85c-.14-2.31.82-4.33,3.42-6.12,2.16-1.39,4.28-3.08,4.14-6.21C77.64,63.65,67.53,50,63.49,48.53a8,8,0,0,0-5,0C49.14,51.66,45.29,59.18,49,68.08a104.33,104.33,0,0,0,7.07,14.06c11.51,19.26,28.45,33.31,50.3,42.51a23.34,23.34,0,0,0,4.09,1.11c6.11.09,13.23-5.73,15.3-11.42,2-5.53-2.21-7.65-5.48-10.35Z"/></g></g></svg>