<svg xmlns="http://www.w3.org/2000/svg" viewBox="0 0 52.62 47.46"><defs><style>.cls-1{fill:#a48903;}</style></defs><title>cyber-icon</title><g id="Layer_2" data-name="Layer 2"><g id="Layer_1-2" data-name="Layer 1"><g id="PC_protection" data-name="PC protection"><path class="cls-1" d="M5.84,37.89H20v7.26H12.63a1.16,1.16,0,0,0,0,2.31H40a1.16,1.16,0,0,0,0-2.31H32.62V37.89H46.78a5.84,5.84,0,0,0,5.79-5.16H0A5.85,5.85,0,0,0,5.84,37.89Z"/><path class="cls-1" d="M46.78,0H5.84A5.83,5.83,0,0,0,0,5.84V30.41H52.62V5.84A5.84,5.84,0,0,0,46.78,0Zm-11,15.85a9.7,9.7,0,0,1-5.05,8.51l-4.42,2.42-4.42-2.42a9.68,9.68,0,0,1-5.05-8.51V8.76l9.47-3,9.47,3Z"/><path class="cls-1" d="M22.23,15.87a1.16,1.16,0,0,0-1.64,1.64h0l3,3a1.16,1.16,0,0,0,1.64,0h0L32,13.67A1.16,1.16,0,0,0,30.39,12l-6,6Z"/></g></g></g></svg>