<svg xmlns="http://www.w3.org/2000/svg" viewBox="0 0 29.66 19.31"><title>email-icon</title><g id="Layer_2" data-name="Layer 2"><g id="Layer_1-2" data-name="Layer 1"><path d="M29.63,19a.76.76,0,0,0,0-.16V.52a.76.76,0,0,0,0-.16v0a.42.42,0,0,0-.09-.16h0a.91.91,0,0,0-.16-.11h0a.48.48,0,0,0-.17,0H.48A.61.61,0,0,0,.3.05h0A.83.83,0,0,0,.14.16h0A.62.62,0,0,0,0,.34v0A.41.41,0,0,0,0,.52V18.79A.41.41,0,0,0,0,19v0a.62.62,0,0,0,.1.16h0l.06.05,0,0,.08,0h0a.71.71,0,0,0,.21,0H29.14a.65.65,0,0,0,.2,0l0,0,.06,0,0,0,.05,0h0a.51.51,0,0,0,.09-.16ZM1,1.69,9.72,9.62,1,17.62Zm17.8,7.54a.35.35,0,0,0-.1.08s0,0,0,0l-3.88,3.54L1.85,1h26Zm-8.35,1.09,4,3.65a.51.51,0,0,0,.35.13.53.53,0,0,0,.35-.13l3.94-3.61,8.69,7.92h-26Zm9.41-.66,8.73-8V17.62Z"/></g></g></svg>