<svg xmlns="http://www.w3.org/2000/svg" viewBox="0 0 50.79 50.79"><defs><style>.cls-1{fill:#a48903;stroke:#a48903;stroke-miterlimit:10;}</style></defs><title>events-icon</title><g id="Layer_2" data-name="Layer 2"><g id="Layer_1-2" data-name="Layer 1"><g id="layer1"><path class="cls-1" d="M8,.5V8h2.49V.5ZM40.33.5V8h2.49V.5ZM.5,3v47.3H50.29V3h-5V5.48H47.8V13H3V5.48H5.48V3ZM13,3V5.48H37.84V3ZM3,15.44H47.8V47.8H3Zm22.4,7.46a5,5,0,0,0-5,5v2.49H17.93V42.82H32.86V30.37H30.37V27.88A5,5,0,0,0,25.39,22.9Zm0,2.49a2.47,2.47,0,0,1,2.49,2.49v2.49h-5V28a.14.14,0,0,0,0-.09A2.47,2.47,0,0,1,25.39,25.39Zm-5,7.47h10v7.47h-10Z"/></g></g></g></svg>