<svg xmlns="http://www.w3.org/2000/svg" viewBox="0 0 55.84 50.11"><defs><style>.cls-1{fill:#a48903;}</style></defs><title>maritime-icon</title><g id="Layer_2" data-name="Layer 2"><g id="Layer_1-2" data-name="Layer 1"><path class="cls-1" d="M55.7,43.73a6.07,6.07,0,0,0-1-1.29V22.71a1.1,1.1,0,0,0-1.1-1.1H1.1a1.09,1.09,0,0,0-.94,1.66L11.75,42.68a31.57,31.57,0,0,0-3.2,2.62,15.89,15.89,0,0,1-2.32,1.88C5,47.86,4,48,3.37,47.6a1,1,0,0,1-.29-.27,1.1,1.1,0,0,0,.16-2.16A1.89,1.89,0,0,0,1,46a2.62,2.62,0,0,0,.62,3,3.64,3.64,0,0,0,2.6,1,6.29,6.29,0,0,0,3.08-.93A17.58,17.58,0,0,0,10,46.94a30.64,30.64,0,0,1,2.87-2.37,6.13,6.13,0,0,1,2-1,1.93,1.93,0,0,1,.78-.06c.2,0,.8.14,1.45,1.22l0,.06A1.1,1.1,0,0,0,19,43.72a4.35,4.35,0,0,0-3-2.36,4.53,4.53,0,0,0-2.29.28L3,23.81H52.52V41.36c-2.3-.29-4.59,1.54-6.67,3.39l-.64.56c-.71.64-1.39,1.25-1.93,1.64l-.38.24c-1.21.68-2.25.83-2.87.42a1.09,1.09,0,0,1-.29-.27,1.1,1.1,0,0,0,.72-.39,1.19,1.19,0,0,0,.23-.43,1.1,1.1,0,0,0-.79-1.34,1.91,1.91,0,0,0-2.23.82,2,2,0,0,0-.24,1A2.9,2.9,0,0,0,38.29,49a3.64,3.64,0,0,0,2.6,1A6.29,6.29,0,0,0,44,49.11,17.11,17.11,0,0,0,46.68,47h0a32.2,32.2,0,0,1,2.63-2.2,4.67,4.67,0,0,1,3-1.21l.21.05a2.42,2.42,0,0,1,1.27,1.24,1.11,1.11,0,0,0,.93.54,1,1,0,0,0,.57-.14A1.1,1.1,0,0,0,55.7,43.73Z"/><path class="cls-1" d="M10.72,29.46a2.57,2.57,0,1,0,2.57-2.57A2.57,2.57,0,0,0,10.72,29.46Z"/><path class="cls-1" d="M24,29.46A2.57,2.57,0,1,0,21.46,32,2.58,2.58,0,0,0,24,29.46Z"/><path class="cls-1" d="M29.69,32a2.57,2.57,0,1,0-2.56-2.56A2.57,2.57,0,0,0,29.69,32Z"/><path class="cls-1" d="M14.12,18.57a1.1,1.1,0,1,0,2.2,0v-.79h13a1.1,1.1,0,1,0,0-2.2h-13V15a1.74,1.74,0,0,1,.39-1.2,2.88,2.88,0,0,1,2.06-.64H45.11a1.1,1.1,0,1,0,0-2.2h-5V1.1A1.1,1.1,0,0,0,39,0H34.72a1.1,1.1,0,0,0-1.1,1.1v9.84H29.39V4.29a1.1,1.1,0,0,0-1.1-1.1H24a1.11,1.11,0,0,0-1.1,1.1v6.65H18.77a4.74,4.74,0,0,0-3.71,1.39,3.94,3.94,0,0,0-.94,2.81v3.43ZM35.82,2.2h2.06v8.66H35.82ZM25.13,5.39h2.06v5.47H25.13Z"/><path class="cls-1" d="M45.2,15.58h-3a1.1,1.1,0,1,0,0,2.2h3a1.1,1.1,0,1,0,0-2.2Z"/><path class="cls-1" d="M35.83,15.58a1.1,1.1,0,0,0,0,2.2H38a1.1,1.1,0,1,0,0-2.2Z"/><path class="cls-1" d="M27.82,43.46c.21,0,.82.13,1.49,1.28h0a1.1,1.1,0,0,0,1.5.39,1.12,1.12,0,0,0,.39-.39,1.08,1.08,0,0,0,0-1.11,4.32,4.32,0,0,0-3-2.36c-2.38-.37-4.76,1.56-6.9,3.47l-.54.48A24.86,24.86,0,0,1,18.67,47l-.26.16c-1.2.67-2.24.82-2.86.42a1,1,0,0,1-.29-.28,1.1,1.1,0,0,0,.15-2.16,2,2,0,0,0-1.94.46,2.2,2.2,0,0,0-.28.36,2.6,2.6,0,0,0,.62,3,3.6,3.6,0,0,0,2.6,1A6.37,6.37,0,0,0,19.49,49,17.81,17.81,0,0,0,22.11,47l.09-.09c.75-.68,1.64-1.46,2.52-2.11A4.79,4.79,0,0,1,27.82,43.46Z"/><path class="cls-1" d="M40.13,43.62c.19,0,.76.13,1.38,1.13a.78.78,0,0,1,.1.15,1.11,1.11,0,0,0,1.51.41,1.21,1.21,0,0,0,.47-.56,1.14,1.14,0,0,0-.07-1,4.32,4.32,0,0,0-3.05-2.35c-2.31-.37-4.62,1.45-6.71,3.3l-.73.64c-.66.6-1.3,1.17-1.82,1.56a4.47,4.47,0,0,1-.49.32c-1.2.67-2.25.83-2.87.42a1.09,1.09,0,0,1-.29-.27,1.13,1.13,0,0,0,.79-.47,1.07,1.07,0,0,0,.16-.36,1.09,1.09,0,0,0-.79-1.33,1.89,1.89,0,0,0-2.23.82,2,2,0,0,0-.24.87,2.91,2.91,0,0,0,.86,2.15,3.65,3.65,0,0,0,2.6,1,6.24,6.24,0,0,0,3.08-.92A17.71,17.71,0,0,0,34.5,47l.09-.08a32,32,0,0,1,2.66-2.2A4.46,4.46,0,0,1,40.13,43.62Z"/><path class="cls-1" d="M40.43,29.46A2.57,2.57,0,1,0,37.86,32,2.57,2.57,0,0,0,40.43,29.46Z"/></g></g></svg>