<svg xmlns="http://www.w3.org/2000/svg" viewBox="0 0 52.35 52.35"><defs><style>.cls-1{fill:#a48903;}</style></defs><title>tracking-icon</title><g id="Layer_2" data-name="Layer 2"><g id="Layer_1-2" data-name="Layer 1"><path class="cls-1" d="M49.08,22.9H45.47a19.59,19.59,0,0,0-16-16V3.27a3.28,3.28,0,0,0-6.55,0v3.6a19.62,19.62,0,0,0-16,16H3.27a3.28,3.28,0,0,0,0,6.55h3.6a19.59,19.59,0,0,0,16,16v3.61a3.28,3.28,0,0,0,6.55,0V45.47a19.57,19.57,0,0,0,16-16h3.61a3.28,3.28,0,0,0,0-6.55ZM26.17,39.26A13.09,13.09,0,1,1,39.26,26.17,13.09,13.09,0,0,1,26.17,39.26Z"/><path class="cls-1" d="M26.17,19.63a6.55,6.55,0,1,0,6.55,6.54A6.54,6.54,0,0,0,26.17,19.63Z"/></g></g></svg>